<svg xmlns="http://www.w3.org/2000/svg" data-name="Layer 1" viewBox="0 0 512 512" x="0px" y="0px"><title>Health_Icons_line</title><path d="M100.91,374.42a4,4,0,0,0,3.55-4.41c-.69-6.36-1.31-13-1.83-19.8a4,4,0,0,0-8,.62c.53,6.86,1.16,13.6,1.86,20a4,4,0,0,0,4,3.57Z"/><path d="M442.4,207.34c12.28-28.79,24.69-58.31,24.69-78.9,0-29.63-8.83-56.27-24.87-75.06-17.46-20.45-42.64-31.22-72.81-31.22-15.17,0-36.89,6.93-57.89,13.56C291.09,42.18,270,49,256,49h0c-13.94,0-35.06-6.85-55.48-13.31C179.51,29,157.78,22,142.6,22c-28.66,0-53.17,10.28-70.88,29.73C54.18,71,44.91,97.52,44.91,128.44c0,19.93,12.39,47.87,24.38,74.89,11.48,25.87,23.35,52.63,23,69.81-.16,8.37-.24,21.93.27,39h0c.19,6.25.44,12.52.76,18.64a4,4,0,0,0,4,3.79h.21a4.18,4.18,0,0,0,4-4.2c-.31-6.07-.54-12.28-.54-18.47h0c-1-16.9-.64-30.31-.48-38.59.36-18.95-11.43-45.29-23.81-73.19C65.06,173.84,53,146.71,53,128.48c0-58.88,36-98.4,89.66-98.4,13.95,0,35.07,6.77,55.5,13.24C219.12,50,240.82,57,256,57h0c15.18,0,36.9-7,57.91-13.64,20.42-6.45,41.54-13.27,55.48-13.27,54.48,0,89.68,38.6,89.68,98.34,0,11.81-4.68,27.4-11.1,44.25,0-.37,0-.73,0-1.1a117.07,117.07,0,1,0-31.57,79.82c-2.41,7.71-4,14.69-4.36,20.59-.27,4.63-.54,10-.84,16-2.86,57.23-9.56,191.27-52.27,191.27-1.9,0-7.46-2.52-18.13-25.83-7.72-16.86-15.8-39.29-24.36-63-23.87-66.24-41-109.66-60.48-109.66-16.34,0-30.2,37.47-51.44,98.61-8.9,25.61-18.1,52.08-27.09,71.77-12.27,26.89-19.7,30.9-23,30.9-24.7,0-37.65-39.57-44.17-72.77h0c-1.2-6.13-2.32-12.7-3.32-19.52A4,4,0,1,0,99,390.86c1,7,2.16,13.65,3.38,19.91h0c10.32,52.57,27.82,79.23,52,79.23,18.78,0,34.32-40.82,57.68-108,8.61-24.77,16.74-48.17,24.68-65.9,11-24.67,17.11-27.33,19.21-27.33,4.35,0,12.14,5.5,24.51,31.69,9.48,20.07,19.12,46.82,28.44,72.68,21,58.38,34.7,94.16,50,94.16,50.32,0,56.79-129.37,60.26-198.87.3-6,.57-11.32.83-15.93.66-11.34,6.74-27.86,14.34-46.2A116.25,116.25,0,0,0,442.4,207.34ZM331.08,280.5a108.9,108.9,0,1,1,103.84-76l-.68,1.59c-2.43,5.7-4.82,11.32-7.1,16.8A109,109,0,0,1,331.08,280.5Z"/><path d="M385,154H349V118a4,4,0,0,0-4-4H313a4,4,0,0,0-4,4v36H272a4,4,0,0,0-4,4v32a4,4,0,0,0,4,4h37v37a4,4,0,0,0,4,4h32a4,4,0,0,0,4-4V194h36a4,4,0,0,0,4-4V158A4,4,0,0,0,385,154Zm-4,32H345a4,4,0,0,0-4,4v37H317V190a4,4,0,0,0-4-4H276V162h37a4,4,0,0,0,4-4V122h24v36a4,4,0,0,0,4,4h36Z"/></svg>