<svg xmlns="http://www.w3.org/2000/svg" data-name="Icons" viewBox="2 5 100 100" x="0px" y="0px"><title>Heart</title><path d="M72.2,48.88c-.19-.12-.38-.21-.57-.31a13.59,13.59,0,0,0-.12-2.65c.81-.24,2.07-.58,3.88-1,1.64-.33,2.51-2,2.17-4.09s-1.85-4.33-4-4.07c-1.7.2-5,1-6.51,1.38a18.13,18.13,0,0,0-2.55-1.75,15.21,15.21,0,0,1,6.32-1.17A2.51,2.51,0,0,0,73,33.9a5.52,5.52,0,0,0,0-5,2.55,2.55,0,0,0-2.21-1.36,21.85,21.85,0,0,0-5.44,1.06,10.67,10.67,0,0,0-6.12-6.92c.37-1.49,1-4.09,1.63-6.63a3.78,3.78,0,0,0-2.84-4.77C56,9.66,52.75,10,52,12c-.15.4-.32.87-.49,1.34a3.35,3.35,0,0,0-1.26-.69,7.4,7.4,0,0,0-6.42,1.85,3,3,0,0,0-.93,3,39.68,39.68,0,0,0,2,5.38,18.56,18.56,0,0,0-2.88,2.43v0c0-1.94-1.67-3.3-4.07-3.3h0c-2.52,0-4.36,1.41-4.36,3.26-.09,1.31-.15,2.59-.2,3.87-1.66.36-4.9,1-7.53,1.34-1.61.17-2.66,1.7-2.54,3.7s1.39,4.12,3.55,4.12h0a39.33,39.33,0,0,0,5.86-.51,41.87,41.87,0,0,1-1.16,5.61s0,.07,0,.1l0,0a11.38,11.38,0,0,0-6.71-1.88A3.7,3.7,0,0,0,21,45.16a3.26,3.26,0,0,0,2.71,3.6h.15c2.12,0,2.78.36,3.63,1.24a18.38,18.38,0,0,0,.27,12.25,36.89,36.89,0,0,0,4.6,9c-.09,1.76-.39,7.67-.79,10.83a3.48,3.48,0,0,0,1.47,3.38,5.54,5.54,0,0,0,3.13.87,7.68,7.68,0,0,0,3.46-.82,3.72,3.72,0,0,0,2.24-3.25c0-.59,0-1.11,0-1.58a20.12,20.12,0,0,0,3.75,2c1.85.71,4.2,1.36,6.69,2,4,1.09,8.46,2.34,11,3.92A8.38,8.38,0,0,0,67.84,90,7.61,7.61,0,0,0,71,89.34c2.51-1.12,5.82-4.16,7.32-12.28C80.4,65.55,77.51,52.11,72.2,48.88ZM62.28,46.1,61.64,46h0l-2-.27a10.35,10.35,0,0,1,2-7.13,2.18,2.18,0,0,1,.21-.22c4.42,2.11,6.64,5,6.84,8.87A34.78,34.78,0,0,0,62.28,46.1Zm11.58-6.31a2.29,2.29,0,0,1,.61,1,2.67,2.67,0,0,1,.14,1.25c-1.75.36-3,.69-3.87,1a12.36,12.36,0,0,0-1.3-2.32C70.93,40.35,72.78,39.94,73.86,39.79Zm-3.34-7.52c-5.08.06-8.87,1.56-11.26,4.46a13,13,0,0,0-2.68,8.43,23.26,23.26,0,0,1-6.89-2.93c-.28-.17-.56-.36-.84-.55a27,27,0,0,0,3.63-5.61,2.59,2.59,0,0,1,1.43-1.52,2.5,2.5,0,0,1,1.72.23l.06,0,.1,0,.09,0,.14,0,.19,0,.13,0h.15l.26,0,.14,0,.1,0c2.73-1.16,10.31-4.12,13.55-4.31A3.2,3.2,0,0,1,70.52,32.27ZM54.75,13.21a3.84,3.84,0,0,1,3,.19c.24.15.43.34.28.95-.59,2.41-1.2,4.87-1.58,6.38-.39-.09-.79-.17-1.21-.24s-.87-.11-1.29-.14q-.27-1-.72-2.76a1.42,1.42,0,0,0,.08-.18S54.14,14.88,54.75,13.21Zm-8.92,3.53a4.51,4.51,0,0,1,3.28-1.3c.19,0,.51.06.55.21.48,2.09.89,3.71,1.19,4.82a13.56,13.56,0,0,0-3.24.93A38.7,38.7,0,0,1,45.83,16.74Zm1.76,8h0a10.86,10.86,0,0,1,7.12-1.3c5.9.94,7.41,4.48,7.79,6.08-1.57.54-3.06,1.1-4.25,1.57a4.79,4.79,0,0,0-.51-1.74,6.52,6.52,0,0,0-4.68-3.19,1.5,1.5,0,1,0-.61,2.93,3.66,3.66,0,0,1,2.62,1.62,2,2,0,0,1,.21.83,5,5,0,0,0-2.27.12,5.45,5.45,0,0,0-3.28,3.11A23.55,23.55,0,0,1,46.3,40a13.66,13.66,0,0,0-2.93-1.34A31.75,31.75,0,0,1,42.15,30a.74.74,0,0,0,.12-.17A15.82,15.82,0,0,1,47.59,24.77Zm-11,.57a2,2,0,0,1,1.31-.41c.74,0,1.1.21,1.15.31v1.24c0,4.64.07,7.94,1.06,11.89a9.57,9.57,0,0,0-4.09,1.44l-.64.41c.26-1.39.44-2.74.57-4.06,0,0,0-.1,0-.15.22-2.2.31-4.32.4-6.4C36.48,28.22,36.54,26.82,36.63,25.34Zm-9.7,9.88c-.06,0-.19-.12-.31-.35a2.23,2.23,0,0,1-.2-1.51c2.37-.28,5.09-.82,6.88-1.2,0,.82-.09,1.63-.16,2.45A38.22,38.22,0,0,1,26.93,35.22ZM24.09,45.77a.93.93,0,0,1,0-.75c.08-.21.24-.44.77-.44a8.78,8.78,0,0,1,4.83,1.2c-.3.44-.59.89-.86,1.37A7.25,7.25,0,0,0,24.09,45.77Zm14.8,36.54c0,.13-.21.38-.63.6a4.05,4.05,0,0,1-3.49.13c-.14-.1-.24-.2-.2-.54.26-2.06.47-5.15.62-7.63A36.69,36.69,0,0,0,39,78.58C39,79.33,38.89,80.55,38.89,82.31Zm36.43-5.79c-1,5.33-3,8.91-5.59,10.08A5,5,0,0,1,65,86.13c-2.94-1.8-7.45-3-11.81-4.25-2.42-.67-4.71-1.3-6.42-2C42.4,78.26,34.2,71.74,30.62,61.29c-2.31-6.77-.35-11.62,2.27-14.82v0a19.21,19.21,0,0,1,4.73-4.08,6.3,6.3,0,0,1,3.3-1c2,0,3.79,1.19,5.74,2.49l.59.39a12.57,12.57,0,0,1-6.57,8.44,48.14,48.14,0,0,0-6.37,3.94,1.5,1.5,0,0,0,.91,2.69,1.53,1.53,0,0,0,.91-.3,41.26,41.26,0,0,1,3.57-2.35c0,2,.22,4.53,1.37,5.74a1.5,1.5,0,1,0,2.18-2.07c-.48-.49-.66-3-.46-5.42a15.48,15.48,0,0,0,7.14-9.06,29.42,29.42,0,0,0,10.21,3c.25,1.15.55,2.73.77,4.37a23.77,23.77,0,0,0-5.74,6,1.5,1.5,0,0,0,.35,2.09,1.54,1.54,0,0,0,.87.27,1.49,1.49,0,0,0,1.22-.63,24.61,24.61,0,0,1,3.63-4.16A11.53,11.53,0,0,1,61,59.7h0C60,63.89,58.34,73.13,60,78.36a1.51,1.51,0,0,0,1.44,1.06,1.39,1.39,0,0,0,.44-.07,1.49,1.49,0,0,0,1-1.87c-.93-3-.56-8,.14-12.3a22.79,22.79,0,0,0,4.29,6.73,1.5,1.5,0,0,0,2.12,0,1.5,1.5,0,0,0,0-2.12c-1.72-1.68-3.5-5-5.3-9.83.57-3-.2-7.89-.75-10.69a17.6,17.6,0,0,1,7.33,2.19C74.43,53.75,77.37,65.45,75.32,76.52Z"/></svg>