<svg xmlns="http://www.w3.org/2000/svg" xmlns:xlink="http://www.w3.org/1999/xlink" version="1.1" x="0px" y="0px" viewBox="0 0 100 100" style="enable-background:new 0 0 100 100;" xml:space="preserve"><path d="M83.158,16.243C72.748,6.55,59.582,0.991,47.035,0.991c-9.134,0-17.327,1.786-24.185,5.03  c-0.163,0.031-0.312,0.108-0.444,0.219C9.856,12.345,1.887,23.402,1.037,37.431C0.436,47.338,3.719,51.964,6.58,54.1  c1.656,1.237,3.72,1.892,5.967,1.892h0.89c1.71,0,3.197,1.098,3.7,2.731l2.105,6.843c0.75,2.437,2.597,4.356,4.953,5.141  c3.167,1.02,6.767,1.046,10.237,0.111c3.12,3.602,7.553,4.772,10.75,5.111c0.189,0.02,0.381,0.019,0.571,0.03  C59.551,81.51,63.437,90.647,65.759,96.11l0.208,0.49c0.421,0.982,1.2,1.738,2.195,2.13c0.473,0.186,0.966,0.278,1.458,0.278  c0.55,0,1.099-0.116,1.617-0.346l2.787-1.239c1.125-0.5,1.979-1.462,2.345-2.639s0.205-2.453-0.413-3.457l-7.201-13.265l7.303-0.635  c3.522-0.307,6.669-2.17,8.63-5.112l4.84-7.259c0.113-0.171,0.284-0.314,0.491-0.412c4.458-2.108,9.017-5.794,9.017-17.153  C99.035,37.182,93.099,25.5,83.158,16.243z M24.815,68.804c-1.732-0.576-3.101-2.007-3.661-3.826l-0.194-0.629  c0.935,0.407,2.131,0.739,3.588,0.739c0.851,0,1.788-0.112,2.804-0.389c0.533-0.145,0.848-0.693,0.704-1.227  c-0.145-0.532-0.692-0.85-1.227-0.703c-4.242,1.149-6.628-1.197-6.736-1.307c-0.008-0.008-0.018-0.01-0.026-0.018l-1.018-3.309  c-0.213-0.693-0.552-1.313-0.973-1.86c0.561-0.942,5.677-9.196,14.367-12.73c-1.169,2.582-2.4,7.001-0.326,11.839  c0.162,0.38,0.531,0.606,0.919,0.606c0.131,0,0.265-0.025,0.394-0.081c0.507-0.218,0.743-0.806,0.525-1.312  c-0.822-1.918-1.018-3.78-0.899-5.452c0.008,0,0.014,0.004,0.021,0.005c0.285-0.015,7.108-0.043,7.969,5.982  c0.071,0.499,0.499,0.858,0.988,0.858c0.047,0,0.095-0.003,0.143-0.01c0.546-0.078,0.926-0.585,0.848-1.132  c-0.861-6.032-6.514-7.636-9.675-7.694c0.51-2.25,1.465-3.92,1.85-4.527c0.8-0.208,1.624-0.378,2.474-0.492  c1.193-0.161,2.37-0.636,3.402-1.374l3.902-2.787c0.027-0.019,0.058-0.034,0.085-0.053c0.603,0.966,1.756,2.379,3.624,3.031  c0.006,0.002,0.013,0.003,0.019,0.005c0.031,0.054,0.486,0.885,0.253,1.733c-0.154,0.562-0.599,1.052-1.323,1.455  c-0.482,0.269-0.656,0.878-0.387,1.36c0.183,0.328,0.523,0.513,0.875,0.513c0.165,0,0.332-0.041,0.486-0.126  c1.222-0.681,1.992-1.591,2.287-2.704c0.186-0.702,0.144-1.356,0.03-1.898c1.437-0.03,2.976-0.502,4.606-1.433  c0.479-0.274,0.646-0.885,0.372-1.364c-0.274-0.48-0.885-0.647-1.364-0.372c-1.979,1.131-3.721,1.45-5.177,0.948  c-1.214-0.418-2.018-1.337-2.482-2.028c0.413-0.13,0.835-0.233,1.267-0.281l2.25-0.25c3.25-0.361,5.842-2.874,6.304-6.11  c0.119-0.835,0.495-1.605,1.059-2.216c1.092,1.113,3.037,2.356,5.544,2.356c0.959,0,1.999-0.182,3.102-0.623  c0.513-0.206,0.763-0.787,0.558-1.3c-0.205-0.513-0.791-0.76-1.3-0.557c-3.043,1.217-5.199-0.132-6.201-1.023  c1.424-0.872,3.773-2.726,4.542-5.806c0.135-0.536-0.191-1.079-0.728-1.213c-0.537-0.136-1.078,0.192-1.212,0.728  c-0.863,3.45-4.478,5.035-4.511,5.049c-0.059,0.024-0.114,0.055-0.166,0.089c-1.449,0.967-2.422,2.509-2.668,4.233  c-0.014,0.101-0.047,0.195-0.068,0.294c-0.607-0.358-1.394-0.975-1.903-1.989c-0.782-1.559-0.708-3.605,0.222-6.083  c0.193-0.517-0.068-1.093-0.585-1.288c-0.518-0.191-1.094,0.068-1.288,0.585c-0.225,0.601-0.395,1.179-0.535,1.745  c-1.597-0.964-4.165-1.693-6.976-0.289c-0.494,0.247-0.694,0.848-0.447,1.342c0.247,0.495,0.848,0.696,1.342,0.447  c2.965-1.482,5.255,0.291,5.748,0.724c-0.057,1.371,0.181,2.615,0.732,3.713c0.788,1.569,2.023,2.472,2.913,2.953  c-0.828,1.224-2.155,2.078-3.699,2.249l-2.25,0.25c-0.045,0.005-0.088,0.018-0.133,0.023c-0.58-0.973-2.034-2.807-4.758-2.807  c-0.552,0-1,0.448-1,1s0.448,1,1,1c1.341,0,2.196,0.72,2.687,1.33c-0.674,0.263-1.316,0.605-1.907,1.027l-3.281,2.344  c0.391-1.771,0.628-4.346-0.234-7.119c0.322-0.544,1.113-1.655,2.383-2.043c1.109-0.335,2.398-0.062,3.832,0.822  c0.47,0.29,1.086,0.143,1.376-0.327c0.29-0.47,0.143-1.086-0.327-1.376c-1.952-1.204-3.8-1.549-5.486-1.024  c-1.047,0.324-1.855,0.937-2.452,1.558c-0.262-2.237,0.696-4.588,1.668-6.301c0.701-1.234,1.931-2.107,3.376-2.397  c1.95-0.39,3.366-2.117,3.366-4.105v-1.243c0-1.394,0.58-2.746,1.59-3.712c1.162-1.11,3.044-2.433,5.41-2.433c0.553,0,1-0.448,1-1  s-0.447-1-1-1c-2.396,0-4.745,1.033-6.791,2.986c-1.404,1.341-2.209,3.221-2.209,5.158v1.243c0,1.039-0.739,1.941-1.758,2.145  c-2.014,0.403-3.735,1.632-4.723,3.37c-0.294,0.518-0.586,1.089-0.853,1.697c-0.591-0.353-1.436-0.997-1.864-1.979  c-0.405-0.931-0.363-2.023,0.127-3.248c0.205-0.513-0.044-1.095-0.557-1.3c-0.515-0.204-1.095,0.044-1.3,0.557  c-0.699,1.749-0.731,3.367-0.094,4.812c0.734,1.666,2.167,2.62,2.994,3.06c-0.535,1.862-0.683,3.915,0.099,5.872  c0.507,1.267,0.714,2.514,0.758,3.659c-0.093,0.016-0.187,0.03-0.276,0.075c-0.033,0.016-3.229,1.578-4.721-0.66  c-0.307-0.46-0.927-0.584-1.387-0.277c-0.459,0.306-0.583,0.927-0.277,1.387c1.06,1.589,2.606,2.096,4.068,2.096  c0.911,0,1.784-0.199,2.489-0.454c-0.186,1.377-0.542,2.414-0.706,2.835c-0.215,0.058-0.431,0.102-0.648,0.131  c-3.044,0.41-5.775,1.395-8.188,2.673l1.051-4.468c0.896-3.803-0.481-7.757-3.522-10.084l-0.115-0.086  c-0.442-0.329-1.069-0.238-1.399,0.206c-0.33,0.443-0.238,1.069,0.206,1.399l0.107,0.082c1.996,1.527,3.068,3.962,2.968,6.485  c-0.946,0.437-4.776,1.921-7.772-1.076c-0.391-0.391-1.023-0.391-1.414,0s-0.391,1.023,0,1.414c1.819,1.82,3.943,2.416,5.858,2.416  c1.087,0,2.101-0.194,2.96-0.464l-1.318,5.599c-0.939,0.623-1.82,1.281-2.638,1.956c-0.218-0.15-0.556-0.447-0.731-0.946  c-0.254-0.722-0.091-1.697,0.471-2.821c0.247-0.494,0.047-1.095-0.447-1.342c-0.495-0.248-1.095-0.046-1.342,0.447  c-0.834,1.668-1.019,3.16-0.548,4.434c0.264,0.715,0.684,1.217,1.074,1.563c-1.169,1.087-2.181,2.177-3.036,3.186  c-0.618-0.102-1.777-0.355-3.126-0.922c1.514-1.707,3.127-5.341-0.204-8.731c-0.388-0.394-1.021-0.4-1.415-0.012  c-0.394,0.387-0.399,1.021-0.012,1.415c2.963,3.015,0.261,5.887-0.056,6.204c-0.059,0.059-0.092,0.131-0.134,0.2  c-2.183-1.315-4.469-3.515-5.699-7.204c-0.174-0.523-0.738-0.81-1.265-0.632c-0.524,0.175-0.807,0.741-0.632,1.265  c0.746,2.237,1.834,3.984,3.06,5.371c-0.786,0.43-1.864,0.818-2.664,0.418c-0.496-0.248-1.095-0.046-1.342,0.447  c-0.247,0.494-0.047,1.095,0.447,1.342c0.539,0.27,1.097,0.376,1.643,0.376c1.373,0,2.657-0.67,3.385-1.133  c2.374,2.022,4.966,2.945,6.616,3.348c-0.797,1.062-1.356,1.922-1.668,2.429c-0.914-0.575-1.983-0.915-3.127-0.915h-0.89  c-1.787,0-3.48-0.53-4.771-1.493c-2.465-1.842-5.29-5.929-4.743-14.946c0.013-0.208,0.037-0.411,0.053-0.618  c0.988,1.065,2.405,1.952,4.252,1.952c0.703,0,1.467-0.128,2.293-0.423c0.52-0.186,0.791-0.758,0.605-1.278  c-0.187-0.521-0.759-0.79-1.278-0.605c-3.746,1.338-5.288-2.224-5.453-2.64c-0.014-0.036-0.042-0.06-0.06-0.093  c1.031-6.34,3.691-11.937,7.676-16.567c0.999-0.624,3.748-1.914,5.675-1.075c0.507,0.223,1.097-0.01,1.316-0.517  c0.221-0.506-0.011-1.095-0.517-1.316c-1.056-0.461-2.187-0.514-3.248-0.37c1.81-1.615,3.812-3.073,5.988-4.36  c-0.595,1.385-1.062,3.077-0.917,4.826c0.167,2.016-1.242,3.838-3.141,4.062c-0.147,0.017-0.294,0.022-0.442,0.021  c-2.686-0.068-5.089,1.258-6.293,3.48c-1.047,1.932-1.2,4.044-0.437,6.33c0.281,0.711,0.697,2.421,0.188,3.17  c-0.077,0.114-0.313,0.46-1.259,0.46c-0.552,0-1,0.448-1,1s0.448,1,1,1c1.66,0,2.502-0.729,2.917-1.341  c1.237-1.827,0.141-4.708,0.032-4.976c-0.562-1.687-0.456-3.265,0.317-4.692c0.83-1.532,2.565-2.498,4.479-2.434  c0.243,0.007,0.487-0.005,0.731-0.034c2.189-0.258,3.958-1.852,4.629-3.91c0.962-0.036,3.303,0.142,3.925,2.628  c0.114,0.454,0.521,0.758,0.969,0.757c0.081,0,0.162-0.009,0.244-0.03c0.536-0.134,0.861-0.677,0.728-1.213  c-0.814-3.26-3.615-4.12-5.583-4.146c-0.003-0.101-0.002-0.2-0.01-0.302c-0.229-2.758,1.568-5.53,2.191-6.398  c3.881-1.855,8.217-3.22,12.929-4.032c-0.326,0.79-0.828,1.864-1.506,2.935c-0.824-0.472-2.375-1.163-3.971-0.786  c-1.243,0.293-2.224,1.143-2.915,2.524c-0.247,0.494-0.047,1.095,0.447,1.342c0.144,0.072,0.296,0.105,0.446,0.105  c0.367,0,0.72-0.202,0.896-0.553c0.417-0.835,0.934-1.316,1.579-1.47c0.791-0.192,1.697,0.135,2.32,0.458  c-0.359,0.412-0.745,0.8-1.166,1.137c-1.771,1.416-2.131,3.932-0.803,5.61c0.137,0.173,0.292,0.349,0.469,0.525  c0.195,0.195,0.451,0.293,0.707,0.293s0.512-0.098,0.707-0.293c0.391-0.391,0.391-1.023,0-1.414  c-0.118-0.118-0.222-0.235-0.314-0.352c-0.646-0.817-0.43-2.077,0.484-2.808c2.941-2.352,4.502-6.456,4.893-7.598  c2.641-0.347,5.386-0.535,8.23-0.535c0.333,0,0.663,0.021,0.996,0.029c-0.546,0.892-0.957,2.209-0.799,4.144  c0.043,0.523,0.48,0.918,0.996,0.918c0.027,0,0.055-0.001,0.083-0.003c0.551-0.045,0.96-0.528,0.915-1.078  c-0.251-3.062,1.299-3.76,1.398-3.801c0.022-0.008,0.036-0.026,0.057-0.035c5.077,0.434,10.006,1.748,14.64,3.733  c-0.97,0.721-2.781,1.688-5.043,1.123c-0.536-0.136-1.078,0.192-1.212,0.728c-0.135,0.536,0.191,1.079,0.728,1.213  c0.648,0.162,1.268,0.231,1.854,0.231c2.924,0,5.008-1.732,5.687-2.381c0.563,0.27,1.122,0.548,1.675,0.837  c-1.016,1.008-1.888,2.656-1.172,4.805c0.14,0.419,0.529,0.684,0.948,0.684c0.104,0,0.211-0.017,0.316-0.052  c0.523-0.175,0.807-0.741,0.632-1.265c-0.577-1.73,0.603-2.769,1.157-3.146c1.705,0.975,3.354,2.038,4.941,3.176  c-4.055-0.024-6.111,2.622-6.746,3.644c-0.086,0.138-0.162,0.282-0.234,0.427c-0.632-0.624-1.49-1.252-2.62-1.568  c-1.794-0.499-3.742-0.094-5.793,1.207c-0.466,0.296-0.604,0.914-0.309,1.38c0.296,0.467,0.915,0.604,1.381,0.309  c1.544-0.98,2.949-1.309,4.167-0.974c1.76,0.481,2.666,2.211,2.684,2.245c0,0.001,0.001,0.001,0.001,0.002  c0.03,0.389,0.1,0.779,0.219,1.162c0.22,0.712,0.464,1.648,0.673,2.771c-0.071-0.024-0.135-0.053-0.211-0.073  c-1.324-0.359-2.84-0.058-4.5,0.896c-0.479,0.275-0.644,0.887-0.368,1.365c0.276,0.479,0.887,0.644,1.366,0.368  c2.847-1.637,3.874-0.192,3.988-0.01c0.025,0.042,0.058,0.074,0.088,0.111c0.239,2.631,0.194,5.902-0.562,9.68  c-0.093,0.464-0.215,0.886-0.343,1.299c-1.678-1.746-5.437-4.639-10.951-3.065c-0.531,0.152-0.839,0.705-0.688,1.236  c0.153,0.532,0.71,0.839,1.236,0.687c1.974-0.564,3.662-0.436,5.055,0.001c-0.217,1.002-0.95,3.038-3.329,3.038  c-0.553,0-1,0.448-1,1s0.447,1,1,1c3.167,0,4.648-2.331,5.18-4.197c1.38,0.83,2.272,1.855,2.637,2.331  c-2.989,5.413-9.392,4.903-9.719,4.872c-0.571-0.062-1.039,0.347-1.094,0.896c-0.055,0.55,0.346,1.04,0.896,1.095  c0.017,0.001,0.29,0.026,0.747,0.026c0.729,0,1.932-0.069,3.308-0.382c-0.074,0.279-0.132,0.568-0.165,0.87  c-0.059,0.527-0.002,1.042,0.134,1.531c-0.421,0.482-1.546,1.583-3.159,1.717c-1.589,0.13-3.292-0.698-5.058-2.464  c-0.391-0.391-1.023-0.391-1.414,0s-0.391,1.023,0,1.414c2.035,2.035,4.097,3.064,6.137,3.064c0.176,0,0.353-0.008,0.528-0.023  c1.856-0.162,3.224-1.156,4.014-1.912c0.378,0.382,0.826,0.707,1.349,0.934c2.025,0.879,3.794,1.213,5.316,1.213  c0.638,0,1.229-0.062,1.78-0.164c4.07,3.298,1.941,7.287,1.74,7.641c-0.654,0.115-1.287,0.379-1.835,0.813  c-0.633,0.501-1.445,1.029-2.408,1.471c-0.039-0.959,0.243-2.704,2.533-3.849c0.494-0.247,0.694-0.848,0.447-1.342  c-0.248-0.494-0.849-0.693-1.342-0.447c-3.354,1.677-3.833,4.602-3.582,6.315c-0.984,0.243-2.072,0.376-3.273,0.306  c-1.33-0.074-2.601,0.325-3.628,1.056c-1.188-1-3.075-3.018-2.319-4.468c0.399-0.764,1.434-1.104,2.351-0.77  c2.319,0.846,4.115,0.963,5.346,0.349c2.124-1.062,2.029-3.179,1.447-4.342c-0.246-0.49-0.84-0.685-1.329-0.446  c-0.493,0.239-0.698,0.836-0.465,1.331c0.199,0.421,0.393,1.198-0.548,1.668c-0.679,0.338-2.084,0.174-3.767-0.438  c-1.874-0.681-3.939,0.061-4.809,1.723c-0.301,0.576-0.418,1.155-0.407,1.722c-1.068,0.072-3.04-0.114-3.601-2.354  c-0.134-0.536-0.677-0.859-1.212-0.728c-0.536,0.134-0.861,0.677-0.728,1.212c0.769,3.077,3.28,3.883,5.226,3.883  c0.295,0,0.572-0.021,0.833-0.053c0.416,0.844,1.023,1.607,1.607,2.22c-1.852,0.149-4.743,0.175-7.873-0.54  c-0.008-0.017-0.007-0.036-0.016-0.053c-0.022-0.04-1.136-2.031-3.233-3.718c0.366-0.535,1.582-2.437,2.219-4.983  c0.251-1.006,0.327-2.049,0.248-3.087c1.096,0.083,3.386,0.526,4.764,2.721c0.189,0.303,0.515,0.469,0.848,0.469  c0.182,0,0.365-0.05,0.53-0.153c0.468-0.293,0.609-0.91,0.315-1.378c-2.091-3.331-5.633-3.661-6.82-3.675  c-0.245-0.86-0.594-1.696-1.061-2.475l-0.654-1.089c-1.108-1.814-3.413-2.56-5.479-1.773c-1.208,0.459-2.143,0.371-2.778-0.264  c-0.391-0.391-1.023-0.391-1.414,0s-0.391,1.023,0,1.414c1.207,1.208,2.948,1.463,4.904,0.719c1.148-0.437,2.463-0.029,3.076,0.972  l0.629,1.05c1.106,1.844,1.453,4.055,0.95,6.064c-0.559,2.235-1.659,3.943-1.936,4.349c-1.878-1.039-4.272-1.626-7.143-0.868  c-2.39,0.632-4.198,0.609-5.091-0.062c-0.593-0.448-0.612-1.081-0.613-1.09c0.011-0.552-0.428-1.009-0.98-1.02  c-0.504-0.002-1.009,0.428-1.02,0.98c-0.003,0.163,0.007,1.625,1.35,2.68c1.428,1.124,3.737,1.272,6.865,0.445  c1.254-0.332,2.39-0.334,3.414-0.142c-0.062,0.966-0.401,2.727-2.016,3.266c-0.524,0.174-0.807,0.74-0.632,1.265  c0.14,0.419,0.53,0.684,0.949,0.684c0.104,0,0.211-0.017,0.316-0.052c2.421-0.807,3.126-3.023,3.322-4.515  c1.54,0.753,2.695,1.899,3.435,2.816c-1.866-0.059-3.741,0.559-5.252,1.779c-1.851,1.495-4.262,2.724-7.164,3.649  C31.356,69.733,27.845,69.781,24.815,68.804z M64.609,76.416c-4.493-1.21-6.718-3.958-7.525-5.21  c0.122-0.123,0.237-0.246,0.351-0.369c3.802,2.736,8.585,4.265,12.541,5.113L64.609,76.416z M47.196,73.972  c-0.909-0.407-4.742-2.331-5.904-6.114c0.647-0.406,1.26-0.83,1.821-1.282c0.592-0.478,1.259-0.829,1.957-1.054  c0.224,4.452,1.883,7.007,3.176,8.329C47.898,73.907,47.548,73.95,47.196,73.972z M48.36,65.436  c1.134,0.313,2.243,0.529,3.301,0.676c-1.193,2.367-2.755,3.448-3.602,3.886c-0.517-1.177-0.919-2.734-1-4.758  C47.497,65.255,47.933,65.317,48.36,65.436z M50.585,73.217c-0.238-0.148-0.864-0.595-1.532-1.489  c1.238-0.662,3.312-2.189,4.719-5.406c1.747,0.107,3.257,0.04,4.382-0.065c-0.835,1.824-2.575,4.319-6.227,6.337  C51.495,72.834,51.044,73.038,50.585,73.217z M55.585,72.554c0.664,0.966,1.854,2.381,3.736,3.649  c-1.514-0.447-2.914-1.254-4.057-2.397l-0.578-0.589C54.998,72.998,55.303,72.778,55.585,72.554z M58.702,69.286  c0.07-0.099,0.133-0.197,0.198-0.295c2.898-0.661,5.623-1.038,8.137-1.214c2.676,4.182,6.463,6.182,9.355,7.121  C73.176,74.6,64.559,73.44,58.702,69.286z M60.175,66.675c0.608-1.263,1.976-2.051,3.436-1.961c4.115,0.248,7.154-1.431,8.988-2.882  c0.805-0.638,1.966-0.598,2.761,0.097c3.825,3.334,8.768,3.562,11.615,3.35l-1.795,2.692C83.518,67.316,73.984,63.959,60.175,66.675  z M36.545,70.125c1.05-0.384,2.056-0.797,2.976-1.262c0.705,1.976,1.962,3.494,3.237,4.605  C40.654,72.939,38.387,71.941,36.545,70.125z M74.225,92.329c0.343,0.559,0.428,1.237,0.233,1.863s-0.648,1.138-1.247,1.403  l-2.786,1.239c-0.489,0.218-1.033,0.229-1.532,0.034c-0.493-0.194-0.879-0.568-1.087-1.055l-0.207-0.486  c-2.102-4.945-5.873-13.799-17.815-19.749c1.081-0.278,2.13-0.691,3.111-1.234c0.021-0.012,0.038-0.025,0.06-0.036l0.888,0.904  c2.185,2.185,5.12,3.392,8.179,3.392c0.336,0,0.673-0.015,1.011-0.044l1.383-0.12c0.001,0,0.003,0.001,0.004,0.001l0-0.001  l2.162-0.188L74.225,92.329z M80.538,73.736c-0.764-0.058-7.077-0.707-11.15-6.071c7.619-0.181,12.932,1.415,14.65,2.019  l-1.014,1.522C82.35,72.216,81.501,73.062,80.538,73.736z M93.229,60.042c-0.557-0.886-1.571-2.15-3.167-3.034  c-0.174-0.212-2.027-2.523-2.027-5.017c0-0.553-0.447-1-1-1s-1,0.447-1,1c0,1.584,0.551,3.067,1.139,4.204  c-1.058,0.089-2.056,0.672-2.653,1.639c-0.194,0.306-0.51,0.517-0.866,0.577c-0.324,0.057-0.644-0.021-0.893-0.219  c-0.692-0.548-1.901-1.201-3.727-1.201c-0.553,0-1,0.447-1,1s0.447,1,1,1c1.004,0,1.841,0.259,2.486,0.77  c0.689,0.547,1.588,0.771,2.47,0.622c0.914-0.156,1.724-0.695,2.252-1.533c0.332-0.533,0.982-0.788,1.574-0.621  c2.181,0.612,3.391,2.302,3.869,3.129c-0.754,0.543-1.588,1.036-2.525,1.479c-0.124,0.059-0.226,0.148-0.34,0.22l-0.009-0.041  c-0.072,0.017-7.309,1.613-12.137-2.596c-0.406-0.355-0.866-0.613-1.349-0.786c0.407-0.988,0.696-2.297,0.578-3.718  c3.67-0.306,9.321-2.174,10.122-7.783c0.078-0.547-0.302-1.053-0.849-1.131c-0.548-0.074-1.054,0.302-1.132,0.848  c-0.229,1.603-0.969,2.777-1.931,3.65c-0.893-0.874-3.179-3.818-0.211-9.012c0.274-0.479,0.107-1.09-0.372-1.364  c-0.479-0.274-1.091-0.108-1.364,0.372c-3.322,5.814-1.035,9.613,0.295,11.135c-1.873,0.965-3.955,1.237-5.003,1.309  c-0.354-0.954-0.939-1.914-1.822-2.829c2.15-1.005,3.21-2.534,3.23-2.564c0.305-0.458,0.182-1.073-0.273-1.38  c-0.456-0.309-1.076-0.188-1.388,0.266c-0.126,0.184-3.171,4.484-10.054,1.494c-0.904-0.392-1.442-1.278-1.339-2.203  c0.091-0.818,0.404-1.5,0.929-2.024c0.008-0.008,0.01-0.018,0.017-0.026c2.638-1.261,5.251-3.691,6.225-8.361  c0.009,0.014,0.015,0.029,0.024,0.043c0.691,1.157,1.713,2.042,2.913,2.57c0,0.002,0,0.003,0,0.005  c0.004,0.017,0.348,1.777-0.618,3.2c-0.663,0.976-1.817,1.607-3.432,1.876c-0.545,0.091-0.913,0.606-0.822,1.151  c0.081,0.489,0.505,0.835,0.985,0.835c0.055,0,0.109-0.004,0.165-0.014c2.175-0.362,3.775-1.279,4.758-2.725  c0.929-1.367,1.055-2.87,1.019-3.812c0.118,0.01,0.234,0.03,0.354,0.034c0.078,0.002,0.155,0.004,0.232,0.004  c2.177,0,4.193-1.048,5.432-2.834c0.065-0.094,0.115-0.194,0.177-0.289c0.436,0.403,0.982,0.787,1.616,1.094  c0.144,1.87,1.211,5.21,4.4,5.597c1.194,0.146,2.085,1.127,1.985,2.188c-0.07,0.754-0.548,1.357-1.46,1.845  c-0.487,0.261-0.671,0.867-0.41,1.354c0.181,0.337,0.525,0.528,0.883,0.528c0.159,0,0.32-0.038,0.471-0.118  c1.903-1.018,2.414-2.423,2.509-3.422c0.125-1.334-0.487-2.6-1.517-3.428c0.557-0.218,1.229-0.375,1.888-0.229  c0.778,0.173,1.44,0.775,1.966,1.789c0.178,0.343,0.527,0.54,0.889,0.54c0.155,0,0.312-0.036,0.459-0.112  c0.49-0.254,0.682-0.858,0.428-1.348c-0.813-1.569-1.932-2.519-3.322-2.823c-2.23-0.486-4.306,0.931-4.693,1.215  c-1.542-0.298-2.139-1.94-2.361-2.987c0.198,0.019,0.393,0.044,0.601,0.044c1.204,0,2.566-0.343,4.049-1.233  c0.474-0.284,0.627-0.898,0.343-1.372c-0.283-0.473-0.898-0.627-1.372-0.343c-3.572,2.143-5.739,0.1-6.362-0.639  c0.339-0.824,0.587-1.687,0.73-2.59c0.087-0.545-0.285-1.058-0.83-1.145c-0.554-0.083-1.058,0.286-1.145,0.831  c-0.228,1.429-0.754,2.746-1.564,3.915c-0.892,1.288-2.354,2.03-3.951,1.97c-1.553-0.053-2.892-0.835-3.672-2.145  c-0.836-1.403-1.158-2.816-1.161-2.83c0-0.001-0.001-0.002-0.001-0.003c0.574-5.771-0.367-10.124-1.073-12.403  c-0.271-0.88-0.165-1.807,0.292-2.543c0.798-1.283,3.226-4.011,8.581-1.956c2.328,1.952,4.48,4.06,6.424,6.279  c-0.639,0.022-1.271,0.185-1.847,0.523c-0.952,0.56-1.644,1.497-1.897,2.571c-0.206,0.869-0.622,2.077-1.434,2.902  c-0.242,0.246-0.608,0.377-0.925,0.371c-0.326-0.009-0.62-0.145-0.827-0.382c-0.368-0.419-0.472-0.964-0.317-1.667  c0.15-0.686,0.512-1.365,0.895-2.084c1.014-1.907,2.402-4.517-1.549-7.2c-0.456-0.31-1.079-0.191-1.389,0.265  c-0.311,0.457-0.191,1.079,0.266,1.389c2.378,1.615,1.976,2.586,1.013,4.404c-0.617-0.079-2.181-0.454-2.794-2.291  c-0.175-0.524-0.736-0.808-1.265-0.632c-0.523,0.175-0.807,0.741-0.632,1.265c0.732,2.199,2.443,3.175,3.792,3.522  c-0.116,0.3-0.22,0.607-0.291,0.932c-0.369,1.68,0.213,2.785,0.767,3.416c0.293,0.334,0.647,0.595,1.039,0.775  c0.075,0.523,0.118,1.937-0.541,2.624c-0.356,0.372-0.921,0.509-1.707,0.421c-0.564-0.056-1.044,0.336-1.104,0.884  c-0.061,0.549,0.335,1.043,0.884,1.104c0.225,0.024,0.438,0.036,0.639,0.036c1.404,0,2.258-0.562,2.741-1.07  c1.112-1.17,1.172-2.902,1.117-3.793c0.607-0.135,1.172-0.437,1.615-0.886c0.911-0.926,1.568-2.219,1.953-3.843  c0.13-0.547,0.481-1.023,0.966-1.308c0.454-0.268,0.976-0.338,1.464-0.199c0.988,0.279,1.676,0.84,1.891,1.031  c0.663,0.875,1.285,1.764,1.881,2.66c-0.343,0.003-0.699,0.037-1.067,0.148c-1.26,0.38-2.247,1.38-2.937,2.974  c-0.219,0.507,0.014,1.096,0.521,1.315c0.13,0.056,0.265,0.083,0.396,0.083c0.388,0,0.756-0.226,0.919-0.604  c0.441-1.021,1.002-1.643,1.666-1.849c0.933-0.292,1.886,0.293,1.911,0.308c0.034,0.022,0.072,0.025,0.107,0.042  c3.385,5.78,5.328,11.837,5.328,17.461c0,1.698-0.096,3.221-0.289,4.604c-0.974-1.119-2.501-2.104-4.711-2.104c-0.553,0-1,0.447-1,1  s0.447,1,1,1c3.159,0,4.022,2.78,4.062,2.912c0.008,0.028,0.026,0.05,0.037,0.077C95.519,57.034,94.568,58.686,93.229,60.042z"/><path d="M35.964,63.988c0.024,0.002,0.048,0.003,0.072,0.003c0.52,0,0.959-0.402,0.997-0.929c0.039-0.551-0.375-1.029-0.926-1.068  c-4.141-0.296-6.877-1.513-8.133-3.615c-1.775-2.972-0.061-6.898-0.027-6.975c0.228-0.503,0.005-1.095-0.497-1.323  c-0.501-0.23-1.096-0.007-1.324,0.496c-0.062,0.135-1.042,2.349-0.95,4.972c-1.259-0.487-2.913-0.582-4.681,0.547  c-0.465,0.298-0.602,0.916-0.304,1.381c0.297,0.467,0.916,0.604,1.381,0.305c2.233-1.427,3.878,0.204,4.06,0.396  c0.02,0.022,0.048,0.029,0.069,0.049c0.148,0.392,0.322,0.783,0.548,1.164c0.904,1.52,2.35,2.66,4.287,3.441  c0.067,0.891,0.027,2.777-0.947,3.264c-0.494,0.247-0.694,0.848-0.447,1.342c0.175,0.351,0.528,0.553,0.896,0.553  c0.15,0,0.303-0.034,0.446-0.105c1.761-0.881,2.078-3.003,2.081-4.4C33.594,63.73,34.726,63.9,35.964,63.988z"/><path d="M58.231,20.011c-4.015-0.803-3.61-5.183-3.589-5.387c0.001-0.013-0.004-0.025-0.003-0.038  c0.507-0.456,1.135-0.797,1.841-0.973c2.963-0.739,5.085,0.262,5.112,0.276c0.497,0.244,1.091,0.043,1.337-0.45  c0.247-0.494,0.047-1.095-0.447-1.342c-0.111-0.056-2.77-1.353-6.486-0.425c-1.987,0.496-3.585,1.886-4.272,3.718  c-0.422,1.126-1.177,2.058-2.243,2.769c-0.459,0.306-0.583,0.927-0.277,1.387c0.193,0.289,0.51,0.445,0.833,0.445  c0.19,0,0.383-0.054,0.554-0.168c0.97-0.646,1.751-1.472,2.337-2.412c0.553,1.954,1.939,3.966,4.912,4.56  c0.066,0.013,0.132,0.02,0.197,0.02c0.467,0,0.885-0.329,0.979-0.804C59.124,20.646,58.772,20.119,58.231,20.011z"/><path d="M28.339,22.838c1.728-1.102,2.696-2.771,2.696-4.847c0-0.145-0.039-3.562-3.445-5.832c-0.461-0.308-1.081-0.183-1.387,0.277  c-0.306,0.459-0.182,1.081,0.277,1.387c2.489,1.659,2.553,4.073,2.555,4.168c0,2.067-1.295,3.418-3.849,4.015  c-1.096,0.256-2.049,0.885-2.728,1.761c-0.544-0.604-1.401-1.328-2.626-1.666c-1.629-0.448-3.418-0.103-5.312,1.033  c-0.474,0.284-0.627,0.898-0.343,1.372s0.898,0.627,1.372,0.343c1.396-0.837,2.651-1.113,3.728-0.826  c0.86,0.231,1.457,0.788,1.796,1.191c-0.564,0.434-1.203,0.779-1.914,1.005c-0.462,0.146-0.938,0.328-1.413,0.539  c-2.594,1.152-4.258,3.65-4.343,6.52c-0.013,0.453,0.026,0.894,0.089,1.329c-0.757,0.723-3.43,3.618-2.428,7.627  c0.114,0.454,0.521,0.758,0.969,0.757c0.081,0,0.162-0.009,0.244-0.03c0.536-0.134,0.861-0.677,0.728-1.213  c-0.544-2.175,0.416-3.933,1.179-4.922c0.683,1.385,1.78,2.548,3.216,3.29c0.147,0.076,0.304,0.112,0.458,0.112  c0.362,0,0.711-0.197,0.889-0.541c0.254-0.491,0.062-1.094-0.429-1.348c-1.862-0.963-2.979-2.88-2.916-5.003  c0.029-0.977,0.304-1.874,0.767-2.648c0.477,0.788,1.25,1.734,2.437,2.297c0.68,0.323,1.409,0.484,2.182,0.484  c0.824,0,1.699-0.184,2.618-0.551c0.513-0.206,0.762-0.787,0.557-1.3c-0.206-0.512-0.785-0.761-1.3-0.557  c-1.234,0.495-2.307,0.536-3.186,0.124c-1.034-0.485-1.617-1.49-1.873-2.042c0.296-0.211,0.609-0.405,0.955-0.558  c0.408-0.181,0.813-0.336,1.206-0.46c1.728-0.549,3.175-1.601,4.187-3.041c0.399-0.568,1-0.969,1.689-1.131  c0.022-0.005,0.041-0.014,0.063-0.019c0.022,0.007,0.037,0.023,0.06,0.029c0.211,0.054,5.179,1.371,5.806,5.954  c0.068,0.501,0.498,0.864,0.989,0.864c0.045,0,0.091-0.003,0.137-0.009c0.547-0.075,0.93-0.579,0.855-1.126  C33.033,25.853,30.31,23.827,28.339,22.838z"/><path d="M42.456,8.867c-1.445-1.169-1.045-2.562-0.991-2.726c0.18-0.517-0.09-1.084-0.607-1.27  c-0.521-0.187-1.092,0.083-1.279,0.604c-0.041,0.115-0.982,2.843,1.62,4.947c0.296,0.24,0.531,0.516,0.711,0.811  c-1.886-0.771-4.492-1.04-6.581,1.051c-0.391,0.391-0.391,1.023,0,1.414s1.023,0.391,1.414,0c1.904-1.904,4.385-0.716,5.321-0.151  c-0.43,1.039-1.3,1.723-2.648,2.083c-0.534,0.143-0.851,0.69-0.708,1.224c0.12,0.447,0.524,0.743,0.966,0.743  c0.085,0,0.172-0.011,0.258-0.034c2.796-0.747,3.834-2.546,4.212-3.924C44.607,11.943,43.945,10.07,42.456,8.867z"/></svg>