<svg xmlns="http://www.w3.org/2000/svg" xmlns:xlink="http://www.w3.org/1999/xlink" version="1.1" x="0px" y="0px" viewBox="0 0 100 100" enable-background="new 0 0 100 100" xml:space="preserve"><path fill-rule="evenodd" clip-rule="evenodd" d="M36.4433594,5.7041016  c0.2348633,0.2685547,0.3520508,0.5703125,0.3520508,0.9052734v14.0859375c0,0.2011719-0.0507813,0.4033203-0.1508789,0.6044922  l-8.703125,15.6455078l1.1064453,10.7158203l11.4702148,3.7734375l8.9545898-4.4277344  c0.3354492-0.1679688,0.7041016-0.1679688,1.1064453,0l8.9042969,4.4277344l11.4702148-3.7734375l1.1064453-10.6660156  L60.8920898,21.25c-0.1674805-0.2353516-0.2514648-0.4697266-0.2514648-0.7050781L60.590332,6.2578125  c0-0.3349609,0.1176758-0.6376953,0.3525391-0.90625C61.2109375,5.1171875,61.5126953,5,61.8481445,5  s0.637207,0.1171875,0.9052734,0.3515625c0.2348633,0.2353516,0.3525391,0.5195313,0.3525391,0.8564453l0.0498047,13.8837891  l11.21875,15.8476563c0.1674805,0.3007813,0.234375,0.5859375,0.2011719,0.8544922l-1.2070313,11.9736328  c-0.0673828,0.5361328-0.3525391,0.8886719-0.8554688,1.0566406l-12.7275391,4.125  c-0.3354492,0.1005859-0.6542969,0.0839844-0.9560547-0.0507813l-8.8037109-4.3261719l-8.8535156,4.3261719  C41.0380859,54,40.8535156,54.0498047,40.6186523,54.0498047l-0.4023438-0.1005859l-12.7275391-4.125  c-0.5029297-0.1679688-0.7880859-0.5205078-0.8554688-1.0566406l-1.2075195-11.9736328  c-0.0332031-0.2353516,0.0170898-0.4863281,0.1513672-0.7548828l8.703125-15.6953125V6.609375  c0-0.3349609,0.1171875-0.6367188,0.3520508-0.9052734c0.2685547-0.234375,0.5698242-0.3525391,0.9052734-0.3525391  C35.9067383,5.3515625,36.2084961,5.4697266,36.4433594,5.7041016z M28.9472656,56.5654297  c0.0673828-0.5029297,0.3354492-0.8388672,0.8051758-1.0068359l4.6787109-1.9619141  c0.4355469-0.1669922,0.8046875-0.1503906,1.1064453,0.0498047l6.0869141,3.5732422l8.4013672-4.8300781  c0.4023438-0.2353516,0.8046875-0.2353516,1.2075195,0l9.5078125,5.4335938l6.0366211-3.5722656  c0.3359375-0.2011719,0.7045898-0.2177734,1.1069336-0.0498047l4.7290039,1.9609375  c0.4360352,0.1347656,0.6875,0.4697266,0.7548828,1.0058594l0.8046875,8.4521484  c0.0673828,0.4365234-0.0839844,0.8046875-0.453125,1.1064453l-10.362793,8.8554688v18.1601563  c0,0.3691406-0.1176758,0.6708984-0.3525391,0.9052734C62.7700195,94.8828125,62.46875,95,62.0996094,95  c-0.3354492,0-0.637207-0.1171875-0.9052734-0.3525391c-0.2348633-0.234375-0.3525391-0.5361328-0.3525391-0.9052734V74.9775391  c0-0.3681641,0.1508789-0.6875,0.453125-0.9560547l10.3129883-8.8037109l-0.6542969-7.0429688l-3.4208984-1.4082031  l-6.1376953,3.5712891c-0.4355469,0.2685547-0.8544922,0.2685547-1.2573242,0l-9.5078125-5.3818359l-8.4013672,4.7792969  c-0.4023438,0.2675781-0.8217773,0.2675781-1.2578125,0l-6.137207-3.5732422l-3.4208984,1.4091797l-0.7045898,7.0429688  l10.3637695,8.8037109c0.3012695,0.3017578,0.4521484,0.6201172,0.4521484,0.9560547v19.3681641  c0,0.3359375-0.1337891,0.6367188-0.4023438,0.9052734C40.8867188,94.8828125,40.6020508,95,40.2661133,95  c-0.3349609,0-0.6367188-0.1171875-0.9052734-0.3525391c-0.2348633-0.234375-0.3520508-0.5361328-0.3520508-0.9052734V74.9775391  l-10.4130859-8.8544922c-0.3022461-0.3007813-0.453125-0.6708984-0.453125-1.1054688L28.9472656,56.5654297z M55.1572266,10.2822266  c0.1342773-0.1679688,0.3017578-0.2509766,0.503418-0.2509766c0.2006836,0,0.3857422,0.0830078,0.5532227,0.2509766  c0.1337891,0.1347656,0.2011719,0.3017578,0.2011719,0.5029297v9.3066406L59.3828125,25.375  c0.269043,0.4355469,0.1679688,0.7705078-0.3017578,1.0058594c-0.0668945,0.0664063-0.184082,0.0996094-0.3520508,0.0996094  c-0.3017578,0-0.5195313-0.1162109-0.6538086-0.3515625l-3.0688477-5.4833984l-0.1005859-0.3515625v-9.5087891  C54.9057617,10.5839844,54.9892578,10.4169922,55.1572266,10.2822266z M55.6098633,87.9072266v-9.7597656  c0-0.5029297,0.2514648-0.7548828,0.7548828-0.7548828c0.5029297,0,0.7543945,0.2519531,0.7543945,0.7548828v9.7597656  c0,0.2001953-0.0668945,0.3847656-0.2011719,0.5527344C56.75,88.59375,56.565918,88.6621094,56.3647461,88.6621094  C55.8613281,88.6621094,55.6098633,88.4101563,55.6098633,87.9072266z"/></svg>