<svg xmlns="http://www.w3.org/2000/svg" data-name="图层 1" viewBox="3 5 50 50" x="0px" y="0px"><title>Urology</title><g><path d="M48.57,23.45C46.43,15.21,40.23,9.09,32.78,7.86c-4.09-.67-11,.19-13.3,5.31a11.09,11.09,0,0,0,.42,10.17l.17.24A12.86,12.86,0,0,0,12,31.78c-1.77,4.85-2,14.06-.52,19.31a1.74,1.74,0,0,0,1.65,1.25,2,2,0,0,0,.48-.07,1.72,1.72,0,0,0,1.18-2.13c-1.3-4.52-1.08-13,.44-17.18,2-5.41,6-6.58,9.11-6.61a7.56,7.56,0,0,0,1.36.13,1.65,1.65,0,0,0,.32,0l.14,0a1.72,1.72,0,1,0,.44-3.41,17.35,17.35,0,0,0-1.88-.14,3.22,3.22,0,0,1-1.92-1.44,7.66,7.66,0,0,1-.18-6.9c1.41-3.14,6.47-3.83,9.61-3.32,6.11,1,11.23,6.14,13,13.07,1.61,6.2.82,13.58-2,18.37a10.13,10.13,0,0,1-7.38,5A11.23,11.23,0,0,1,26.78,45c-2.51-2.33-2.88-7.29-1.42-9.6a1.76,1.76,0,0,0,.73-.75,1.72,1.72,0,0,0-.78-2.3,5,5,0,0,0-4.4-.29c-1.66.72-2.91,2.45-3.72,5.14-.91,3-1.43,9.29.28,13.7a1.73,1.73,0,0,0,1.6,1.1h0a1.59,1.59,0,0,0,.62-.12,1.72,1.72,0,0,0,1-2.22c-1.34-3.46-1-8.88-.2-11.47a8.61,8.61,0,0,1,.93-2.13c-1,3.87.18,8.81,3,11.46a14.38,14.38,0,0,0,9.76,3.74,16.16,16.16,0,0,0,2.2-.16,13.48,13.48,0,0,0,9.84-6.67C49.51,38.81,50.42,30.58,48.57,23.45Z"/><path d="M30.87,36.87a10.38,10.38,0,0,0,5.41,3.31,2.06,2.06,0,0,0,1.08-4c-2.08-.6-3.31-1.68-3.38-2.1a.65.65,0,0,1,0-.1s.63-.5,3.38,0a2.06,2.06,0,0,0,2.38-1.5h0A2.07,2.07,0,0,0,38.16,30c-2.35-.45-4.71-.53-6.41.59a4.18,4.18,0,0,0-1.85,2.93A4.47,4.47,0,0,0,30.87,36.87Z"/><path d="M37.32,22.4l0,0A1.69,1.69,0,0,0,37.85,20a1.73,1.73,0,0,0-2.4-.49c-2.24,1.45-6,3.88-4.24,7.16a4.16,4.16,0,0,0,4,2.08,12,12,0,0,0,4.09-.86A1.72,1.72,0,0,0,38,24.72c-1.55.63-3.46.81-3.73.29C34.27,24.38,36.49,22.94,37.32,22.4Z"/></g></svg>